# xmcd
#
# Track frame offsets:
# 150
# 13768
# 34675
# 60051
# 77272
# 95047
# 108424
# 127174
# 144490
# 161661
# 188375
# 204040
# 220332
# 237141
# 247271
# 271451
# 306782
#
# Disc length: 4287 seconds
#
#
# Revision: 0
# Processed by: cddbd v1.5.1PL0 Copyright (c) Steve Scherf et al.
# Submitted via: FreeRIP 2.943 
#
DISCID=e010bd11
DTITLE=Various Artist - 2e PrePaas Blues Festival
DYEAR=1900
DGENRE=Blues
TTITLE0=The Ray Band - Memphis Women And Chicken
TTITLE1=The Ray Band - How Long
TTITLE2=The Ray Band - Tangled And Dark
TTITLE3=The Ray Band - Down In Hollywood
TTITLE4=The Ray Band - Telephone Song
TTITLE5=Fat Chicken - Ain't Nobody Here But Us Chickens
TTITLE6=Fat Chicken - Every Night Of The Week
TTITLE7=Fat Chicken - The Party
TTITLE8=Fat Chicken - Why Don't You Do Right
TTITLE9=Fat Chicken - Hound Dog
TTITLE10=Memphis Train - Maybe Someday Baby
TTITLE11=Memphis Train - Let's Go Get Stoned
TTITLE12=Memphis Train - Reconsider Baby
TTITLE13=Memphis Train - Something You Got
TTITLE14=Memphis Train - In The Midnight Hour - I Can't Turn You Loose
TTITLE15=Memphis Train - Papa's Got A Brand New Bag
TTITLE16=Memphis Train - I Got You
EXTD=
EXTT0=
EXTT1=
EXTT2=
EXTT3=
EXTT4=
EXTT5=
EXTT6=
EXTT7=
EXTT8=
EXTT9=
EXTT10=
EXTT11=
EXTT12=
EXTT13=
EXTT14=
EXTT15=
EXTT16=
PLAYORDER=
